<svg width="64" height="64" viewBox="0 0 64 64" fill="none" xmlns="http://www.w3.org/2000/svg">
  <rect width="64" height="64" rx="16" fill="url(#sky)"/>
  <path d="M7 48h50" stroke="#0F2D50" stroke-width="3" stroke-linecap="round"/>
  <path d="M11 47V34h7v13M21 47V28h8v19M46 47V31h7v16M34 47V36h8v11" fill="#7CC6F2" opacity=".9"/>
  <path d="M32 10l-9 38h18L32 10Z" fill="#F15B4A"/>
  <path d="M32 10l-4.2 17.7h8.4L32 10Z" fill="#FFFFFF" opacity=".9"/>
  <path d="M25.2 38h13.6M27.2 29h9.6M29.1 21h5.8" stroke="#FFFFFF" stroke-width="2.4" stroke-linecap="round"/>
  <path d="M21 48c7-8 15-8 22 0" stroke="#18A4E0" stroke-width="3" stroke-linecap="round"/>
  <circle cx="46" cy="18" r="5" fill="#FFD45A"/>
  <defs>
    <linearGradient id="sky" x1="32" y1="0" x2="32" y2="64" gradientUnits="userSpaceOnUse">
      <stop stop-color="#DDF4FF"/>
      <stop offset="1" stop-color="#F8FDFF"/>
    </linearGradient>
  </defs>
</svg>
